<?xml version="1.0" standalone="no"?>
<!DOCTYPE svg PUBLIC "-//W3C//DTD SVG 20010904//EN"
    "http://www.w3.org/TR/2001/REC-SVG-20010904/DTD/svg10.dtd">
<svg version="1.0" xmlns="http://www.w3.org/2000/svg"
     width="4400.000000pt" height="1880.000000pt" viewBox="0 0 4400.000000 1880.000000"
     preserveAspectRatio="xMidYMid meet">

    <g transform="translate(0.000000,1880.000000) scale(0.100000,-0.100000)"
       fill="#ffffff" stroke="none">
        <path d="M4547 18513 c-4 -3 -7 -1197 -7 -2653 0 -1794 -3 -2682 -11 -2756
-69 -717 -414 -1130 -1006 -1209 -335 -45 -669 12 -988 168 -252 124 -454 276
-736 555 l-187 183 -640 -712 -640 -713 51 -60 c91 -105 229 -246 333 -340
610 -552 1285 -856 2134 -961 176 -22 650 -31 847 -16 1049 80 1839 475 2339
1171 330 458 523 1036 584 1745 6 78 10 1082 10 2863 l0 2742 -1038 0 c-571 0
-1042 -3 -1045 -7z"/>
        <path d="M18897 18513 c-12 -11 -8 -4528 3 -4754 52 -1030 324 -1852 821
-2481 105 -133 364 -392 499 -498 543 -430 1214 -683 2062 -775 352 -39 862
-38 1236 0 1287 133 2259 694 2827 1630 271 448 455 991 544 1610 58 400 55
251 58 2868 l4 2407 -1018 -2 -1018 -3 -5 -2400 c-6 -2556 -4 -2416 -50 -2676
-87 -487 -308 -901 -622 -1163 -303 -252 -673 -386 -1155 -416 -508 -32 -972
76 -1318 308 -253 169 -436 385 -580 684 -122 254 -181 467 -233 838 -14 102
-16 375 -19 2473 l-4 2357 -1013 0 c-557 0 -1016 -3 -1019 -7z"/>
        <path d="M8140 17291 l0 -1220 2304 -1973 2303 -1973 -2303 -3 -2304 -2 0
-1010 0 -1010 4623 2 4622 3 0 1005 0 1005 -2303 5 -2303 5 2306 1974 2305
1975 0 1219 c0 783 -3 1217 -10 1215 -5 -1 -1036 -883 -2290 -1958 -1255
-1075 -2292 -1963 -2305 -1973 l-24 -18 -2305 1976 c-1268 1086 -2308 1975
-2311 1975 -3 0 -5 -549 -5 -1219z"/>
        <path d="M20137 7839 c-90 -21 -173 -83 -212 -159 -25 -48 -45 -150 -45 -232
l0 -78 -70 0 -70 0 0 -145 0 -145 70 0 70 0 0 -460 0 -460 175 0 175 0 0 460
0 459 138 3 137 3 3 143 3 142 -141 0 -140 0 0 53 c0 64 27 114 67 123 15 3
33 7 40 9 12 4 96 -8 146 -20 l27 -7 0 145 0 145 -69 16 c-75 17 -241 20 -304
5z"/>
        <path d="M12310 7675 l0 -155 185 0 185 0 0 155 0 155 -185 0 -185 0 0 -155z"/>
        <path d="M8140 6960 l0 -800 175 0 175 0 0 800 0 800 -175 0 -175 0 0 -800z"/>
        <path d="M11437 7693 c-4 -3 -7 -75 -7 -160 l0 -153 -75 0 -75 0 0 -150 0
-150 74 0 75 0 3 -347 c3 -338 4 -350 27 -407 34 -85 92 -139 176 -165 119
-37 292 -24 397 30 l38 19 0 141 c0 131 -1 141 -17 134 -83 -34 -168 -44 -218
-25 -50 19 -55 53 -55 350 l0 270 145 0 145 0 0 150 0 150 -145 0 -145 0 0
160 0 160 -168 0 c-93 0 -172 -3 -175 -7z"/>
        <path d="M13037 7693 c-4 -3 -7 -75 -7 -160 l0 -153 -75 0 -75 0 0 -150 0
-150 74 0 75 0 3 -347 c3 -338 4 -350 27 -407 34 -85 92 -139 176 -165 119
-37 292 -24 397 30 l38 19 0 141 c0 131 -1 141 -17 134 -83 -34 -168 -44 -218
-25 -50 19 -55 53 -55 350 l0 270 145 0 145 0 0 150 0 150 -145 0 -145 0 0
160 0 160 -168 0 c-93 0 -172 -3 -175 -7z"/>
        <path d="M15397 7693 c-4 -3 -7 -75 -7 -160 l0 -153 -75 0 -75 0 0 -150 0
-150 74 0 75 0 3 -347 c3 -338 4 -350 27 -407 34 -85 92 -139 176 -165 119
-37 292 -24 397 30 l38 19 0 141 c0 131 -1 141 -17 134 -83 -34 -168 -44 -218
-25 -50 19 -55 53 -55 350 l0 270 145 0 145 0 0 150 0 150 -145 0 -145 0 0
160 0 160 -168 0 c-93 0 -172 -3 -175 -7z"/>
        <path d="M9425 7397 c-69 -23 -108 -48 -172 -110 l-63 -60 0 76 0 77 -175 0
-175 0 0 -610 0 -610 175 0 174 0 3 388 c3 384 3 387 27 435 34 69 85 101 170
105 108 5 183 -47 211 -147 6 -21 10 -190 10 -408 l0 -373 175 0 175 0 0 438
c0 350 -3 449 -15 500 -32 134 -100 222 -213 275 -57 26 -78 31 -166 34 -66 2
-115 -2 -141 -10z"/>
        <path d="M16633 7391 c-210 -57 -353 -202 -424 -431 -30 -96 -32 -270 -5 -369
45 -164 170 -323 306 -389 256 -124 569 -86 757 92 l66 62 -103 92 -102 92
-36 -31 c-20 -18 -66 -46 -102 -63 -58 -27 -75 -31 -156 -31 -81 0 -97 3 -149
30 -67 34 -114 89 -138 159 l-16 46 431 0 431 0 -6 128 c-9 206 -59 341 -172
461 -108 114 -217 161 -395 167 -92 3 -129 0 -187 -15z m282 -295 c67 -40 104
-96 129 -198 l6 -28 -261 0 -261 0 7 33 c12 54 65 145 102 173 79 60 195 68
278 20z"/>
        <path d="M18782 7391 c-125 -32 -217 -84 -309 -176 -66 -66 -90 -98 -123 -167
-140 -291 -50 -629 214 -806 146 -98 355 -136 532 -98 244 54 436 232 500 467
28 100 23 253 -10 356 -63 194 -210 342 -407 408 -112 37 -286 44 -397 16z
m304 -316 c64 -31 118 -89 152 -164 23 -47 27 -70 27 -146 0 -76 -4 -99 -26
-145 -36 -77 -80 -124 -147 -157 -74 -36 -191 -39 -264 -6 -69 32 -131 94
-164 166 -25 54 -28 74 -28 152 0 97 17 153 70 222 81 107 251 141 380 78z"/>
        <path d="M10518 7385 c-129 -32 -227 -109 -276 -213 -24 -50 -27 -70 -27 -157
0 -81 4 -109 22 -147 47 -103 155 -172 365 -234 185 -54 241 -93 225 -156 -12
-47 -51 -63 -152 -62 -107 1 -182 23 -297 90 -43 24 -79 44 -82 44 -2 0 -37
-50 -76 -112 l-73 -112 29 -23 c43 -36 220 -119 294 -140 101 -27 313 -25 406
4 173 55 268 184 267 363 0 104 -22 161 -87 223 -58 57 -133 95 -296 152 -159
55 -217 86 -226 120 -10 41 3 71 40 89 69 32 182 14 324 -54 46 -22 85 -40 87
-40 4 0 125 220 128 232 3 17 -113 76 -213 109 -79 26 -115 32 -210 35 -79 2
-133 -1 -172 -11z"/>
        <path d="M12320 6770 l0 -610 175 0 175 0 0 610 0 610 -175 0 -175 0 0 -610z"/>
        <path d="M13910 6951 c0 -249 4 -451 10 -482 15 -78 62 -171 110 -219 23 -23
72 -56 108 -73 63 -30 74 -32 182 -32 104 0 120 3 173 27 33 16 86 54 123 89
l64 62 0 -81 0 -82 175 0 175 0 0 610 0 610 -175 0 -174 0 -3 -387 c-3 -381
-3 -389 -26 -430 -33 -64 -90 -97 -171 -101 -108 -5 -183 47 -211 147 -6 21
-10 188 -10 404 l0 367 -175 0 -175 0 0 -429z"/>
        <path d="M21177 5089 c-90 -21 -173 -83 -212 -159 -25 -48 -45 -150 -45 -232
l0 -78 -70 0 -70 0 0 -145 0 -145 70 0 70 0 0 -460 0 -460 175 0 175 0 0 460
0 459 138 3 137 3 3 143 3 142 -141 0 -140 0 0 53 c0 64 27 114 67 123 15 3
33 7 40 9 12 4 96 -8 146 -20 l27 -7 0 145 0 145 -69 16 c-75 17 -241 20 -304
5z"/>
        <path d="M12290 4925 l0 -155 185 0 185 0 0 155 0 155 -185 0 -185 0 0 -155z"/>
        <path d="M28560 4925 l0 -155 185 0 185 0 0 155 0 155 -185 0 -185 0 0 -155z"/>
        <path d="M8120 4209 l0 -800 478 3 c461 4 479 5 552 27 155 47 255 124 307
238 38 83 44 214 13 314 -19 63 -30 81 -83 134 -38 38 -86 73 -124 91 l-62 30
55 42 c95 74 144 176 144 303 0 162 -88 298 -235 364 -113 51 -162 55 -619 55
l-426 0 0 -801z m839 461 c84 -48 110 -119 73 -203 -37 -84 -122 -106 -404
-107 l-158 0 0 171 0 171 223 -4 c215 -3 223 -4 266 -28z m84 -632 c50 -23 61
-34 79 -74 39 -89 8 -173 -80 -216 -45 -22 -58 -23 -309 -26 l-263 -4 0 177 0
177 258 -4 c255 -3 257 -3 315 -30z"/>
        <path d="M18760 4210 l0 -800 175 0 175 0 0 800 0 800 -175 0 -175 0 0 -800z"/>
        <path d="M27687 4943 c-4 -3 -7 -75 -7 -160 l0 -153 -75 0 -75 0 0 -150 0
-150 74 0 75 0 3 -347 c3 -338 4 -350 27 -407 34 -85 92 -139 176 -165 119
-37 292 -24 397 30 l38 19 0 141 c0 131 -1 141 -17 134 -83 -34 -168 -44 -218
-25 -50 19 -55 53 -55 350 l0 270 145 0 145 0 0 150 0 150 -145 0 -145 0 0
160 0 160 -168 0 c-93 0 -172 -3 -175 -7z"/>
        <path d="M13545 4647 c-69 -23 -108 -48 -172 -110 l-63 -60 0 76 0 77 -175 0
-175 0 0 -610 0 -610 175 0 174 0 3 388 c3 384 3 387 27 435 34 69 85 101 170
105 108 5 183 -47 211 -147 6 -21 10 -190 10 -408 l0 -373 175 0 175 0 0 438
c0 350 -3 449 -15 500 -32 134 -100 222 -213 275 -57 26 -78 31 -166 34 -66 2
-115 -2 -141 -10z"/>
        <path d="M14763 4641 c-210 -57 -353 -202 -424 -431 -30 -96 -32 -270 -5 -369
45 -164 170 -323 306 -389 256 -124 569 -86 757 92 l66 62 -103 92 -102 92
-36 -31 c-20 -18 -66 -46 -102 -63 -58 -27 -75 -31 -156 -31 -81 0 -97 3 -149
30 -67 34 -114 89 -138 159 l-16 46 431 0 431 0 -6 128 c-9 206 -59 341 -172
461 -108 114 -217 161 -395 167 -92 3 -129 0 -187 -15z m282 -295 c67 -40 104
-96 129 -198 l6 -28 -261 0 -261 0 7 33 c12 54 65 145 102 173 79 60 195 68
278 20z"/>
        <path d="M20045 4647 c-69 -23 -108 -48 -172 -110 l-63 -60 0 76 0 77 -175 0
-175 0 0 -610 0 -610 175 0 174 0 3 388 c3 384 3 387 27 435 34 69 85 101 170
105 108 5 183 -47 211 -147 6 -21 10 -190 10 -408 l0 -373 175 0 175 0 0 438
c0 350 -3 449 -15 500 -32 134 -100 222 -213 275 -57 26 -78 31 -166 34 -66 2
-115 -2 -141 -10z"/>
        <path d="M22142 4641 c-125 -32 -217 -84 -309 -176 -66 -66 -90 -98 -123 -167
-140 -291 -50 -629 214 -806 146 -98 355 -136 532 -98 244 54 436 232 500 467
28 100 23 253 -10 356 -63 194 -210 342 -407 408 -112 37 -286 44 -397 16z
m304 -316 c64 -31 118 -89 152 -164 23 -47 27 -70 27 -146 0 -76 -4 -99 -26
-145 -36 -77 -80 -124 -147 -157 -74 -36 -191 -39 -264 -6 -69 32 -131 94
-164 166 -25 54 -28 74 -28 152 0 97 17 153 70 222 81 107 251 141 380 78z"/>
        <path d="M23803 4646 c-86 -27 -161 -92 -212 -186 l-31 -55 0 113 0 112 -175
0 -175 0 0 -610 0 -610 175 0 175 0 0 264 c0 145 4 287 10 316 34 177 148 286
312 298 l68 5 0 183 0 184 -52 -1 c-29 0 -72 -6 -95 -13z"/>
        <path d="M24718 4641 c-67 -22 -105 -47 -175 -115 l-53 -50 0 77 0 77 -175 0
-175 0 0 -610 0 -610 174 0 175 0 3 393 c3 379 4 393 24 432 39 72 97 105 186
105 97 0 166 -60 187 -161 7 -30 11 -191 11 -409 l0 -360 174 0 175 0 3 393
c3 379 4 393 24 432 12 22 30 48 41 57 50 46 160 62 227 34 43 -18 92 -78 105
-132 7 -27 11 -179 11 -413 l0 -371 175 0 175 0 0 443 c0 359 -3 454 -15 506
-44 185 -170 288 -365 299 -153 8 -277 -35 -378 -132 l-58 -55 -34 47 c-39 52
-112 105 -168 123 -68 21 -211 21 -274 0z"/>
        <path d="M29632 4640 c-110 -29 -195 -75 -275 -151 -84 -78 -137 -162 -173
-274 -22 -65 -27 -100 -27 -190 -1 -185 51 -320 172 -448 124 -129 250 -186
436 -194 197 -9 343 41 469 159 l67 63 -105 104 -104 104 -43 -37 c-77 -65
-143 -91 -234 -91 -67 0 -89 5 -137 28 -67 33 -111 80 -147 157 -22 47 -25 69
-25 150 0 81 3 103 25 150 34 74 81 126 143 158 43 22 64 26 131 26 97 -1 153
-23 223 -88 l49 -46 108 117 108 117 -58 54 c-142 132 -393 187 -603 132z"/>
        <path d="M11438 4635 c-129 -32 -227 -109 -276 -213 -24 -50 -27 -70 -27 -157
0 -81 4 -109 22 -147 47 -103 155 -172 365 -234 185 -54 241 -93 225 -156 -12
-47 -51 -63 -152 -62 -107 1 -182 23 -297 90 -43 24 -79 44 -82 44 -2 0 -37
-50 -76 -112 l-73 -112 29 -23 c43 -36 220 -119 294 -140 101 -27 313 -25 406
4 173 55 268 184 267 363 0 104 -22 161 -87 223 -58 57 -133 95 -296 152 -159
55 -217 86 -226 120 -10 41 3 71 40 89 69 32 182 14 324 -54 46 -22 85 -40 87
-40 4 0 125 220 128 232 3 17 -113 76 -213 109 -79 26 -115 32 -210 35 -79 2
-133 -1 -172 -11z"/>
        <path d="M16018 4635 c-129 -32 -227 -109 -276 -213 -24 -50 -27 -70 -27 -157
0 -81 4 -109 22 -147 47 -103 155 -172 365 -234 185 -54 241 -93 225 -156 -12
-47 -51 -63 -152 -62 -107 1 -182 23 -297 90 -43 24 -79 44 -82 44 -2 0 -37
-50 -76 -112 l-73 -112 29 -23 c43 -36 220 -119 294 -140 101 -27 313 -25 406
4 173 55 268 184 267 363 0 104 -22 161 -87 223 -58 57 -133 95 -296 152 -159
55 -217 86 -226 120 -10 41 3 71 40 89 69 32 182 14 324 -54 46 -22 85 -40 87
-40 4 0 125 220 128 232 3 17 -113 76 -213 109 -79 26 -115 32 -210 35 -79 2
-133 -1 -172 -11z"/>
        <path d="M17138 4635 c-129 -32 -227 -109 -276 -213 -24 -50 -27 -70 -27 -157
0 -81 4 -109 22 -147 47 -103 155 -172 365 -234 185 -54 241 -93 225 -156 -12
-47 -51 -63 -152 -62 -107 1 -182 23 -297 90 -43 24 -79 44 -82 44 -2 0 -37
-50 -76 -112 l-73 -112 29 -23 c43 -36 220 -119 294 -140 101 -27 313 -25 406
4 173 55 268 184 267 363 0 104 -22 161 -87 223 -58 57 -133 95 -296 152 -159
55 -217 86 -226 120 -10 41 3 71 40 89 69 32 182 14 324 -54 46 -22 85 -40 87
-40 4 0 125 220 128 232 3 17 -113 76 -213 109 -79 26 -115 32 -210 35 -79 2
-133 -1 -172 -11z"/>
        <path d="M26590 4635 c-41 -8 -109 -26 -150 -40 -41 -15 -83 -29 -92 -32 -10
-3 -18 -9 -18 -13 0 -4 18 -65 41 -135 37 -118 42 -127 62 -121 170 48 185 50
302 51 106 0 125 -3 168 -24 63 -31 99 -84 105 -157 l5 -54 -29 11 c-57 21
-177 39 -270 39 -236 0 -408 -88 -464 -237 -63 -170 -18 -354 110 -448 68 -50
149 -76 257 -82 143 -9 253 26 361 113 l32 27 0 -62 0 -61 171 0 170 0 -3 433
-3 432 -26 72 c-51 139 -145 228 -288 274 -86 28 -328 36 -441 14z m379 -710
l54 -17 -6 -65 c-7 -87 -41 -136 -122 -178 -51 -26 -69 -30 -139 -30 -129 0
-191 49 -191 150 0 78 48 133 138 156 48 12 205 3 266 -16z"/>
        <path d="M30798 4635 c-129 -32 -227 -109 -276 -213 -24 -50 -27 -70 -27 -157
0 -81 4 -109 22 -147 47 -103 155 -172 365 -234 185 -54 241 -93 225 -156 -12
-47 -51 -63 -152 -62 -107 1 -182 23 -297 90 -43 24 -79 44 -82 44 -2 0 -37
-50 -76 -112 l-73 -112 29 -23 c43 -36 220 -119 294 -140 101 -27 313 -25 406
4 173 55 268 184 267 363 0 104 -22 161 -87 223 -58 57 -133 95 -296 152 -159
55 -217 86 -226 120 -10 41 3 71 40 89 69 32 182 14 324 -54 46 -22 85 -40 87
-40 4 0 125 220 128 232 3 17 -113 76 -213 109 -79 26 -115 32 -210 35 -79 2
-133 -1 -172 -11z"/>
        <path d="M9740 4201 c0 -249 4 -451 10 -482 15 -78 62 -171 110 -219 23 -23
72 -56 108 -73 63 -30 74 -32 182 -32 104 0 120 3 173 27 33 16 86 54 123 89
l64 62 0 -81 0 -82 175 0 175 0 0 610 0 610 -175 0 -174 0 -3 -387 c-3 -381
-3 -389 -26 -430 -33 -64 -90 -97 -171 -101 -108 -5 -183 47 -211 147 -6 21
-10 188 -10 404 l0 367 -175 0 -175 0 0 -429z"/>
        <path d="M12300 4020 l0 -610 175 0 175 0 0 610 0 610 -175 0 -175 0 0 -610z"/>
        <path d="M28570 4020 l0 -610 175 0 175 0 0 610 0 610 -175 0 -175 0 0 -610z"/>
        <path d="M32330 4125 l0 -165 490 0 490 0 0 165 0 165 -490 0 -490 0 0 -165z"/>
        <path d="M22907 2333 c-4 -3 -7 -381 -7 -840 l0 -833 175 0 175 0 0 840 0 840
-168 0 c-93 0 -172 -3 -175 -7z"/>
        <path d="M25820 2034 l0 -296 -53 48 c-92 84 -196 124 -326 124 -257 0 -466
-171 -538 -440 -13 -46 -18 -103 -18 -195 0 -211 52 -352 174 -474 106 -107
234 -161 381 -161 130 0 230 40 321 129 l59 57 0 -83 0 -83 175 0 175 0 0 835
0 835 -175 0 -175 0 0 -296z m-180 -445 c58 -26 115 -81 148 -144 25 -46 27
-59 27 -170 0 -111 -2 -124 -27 -170 -90 -169 -275 -216 -430 -108 -81 55
-136 192 -125 309 12 131 70 224 169 273 76 39 167 42 238 10z"/>
        <path d="M34550 2175 l0 -155 185 0 185 0 0 155 0 155 -185 0 -185 0 0 -155z"/>
        <path d="M40290 2175 l0 -155 185 0 185 0 0 155 0 155 -185 0 -185 0 0 -155z"/>
        <path d="M14608 2274 c-132 -32 -253 -126 -304 -237 -23 -50 -29 -79 -32 -154
-5 -107 12 -175 64 -272 19 -35 34 -64 32 -66 -2 -1 -30 -18 -64 -38 -81 -49
-158 -132 -196 -213 -25 -54 -32 -83 -36 -158 -12 -239 121 -414 364 -476 194
-50 434 -3 589 115 25 19 48 35 52 35 4 0 48 -41 98 -90 l91 -91 125 87 c68
48 126 89 129 91 2 2 -49 56 -113 121 l-117 117 41 60 c42 63 169 272 169 279
0 2 -44 28 -97 56 -54 29 -112 61 -130 72 l-31 19 -67 -118 c-101 -180 -79
-174 -195 -58 -55 55 -100 102 -100 105 0 3 33 22 74 43 41 21 95 56 119 77
166 147 182 404 35 565 -61 67 -119 102 -207 127 -78 21 -210 23 -293 2z m218
-280 c37 -18 74 -82 74 -130 -1 -44 -34 -108 -71 -137 -19 -14 -59 -37 -89
-51 l-55 -26 -18 23 c-73 91 -92 174 -59 250 26 59 70 87 135 87 27 0 64 -7
83 -16z m41 -977 c-6 -21 -130 -77 -183 -84 -102 -11 -201 33 -240 108 -20 40
-18 122 5 167 19 37 55 74 101 106 l25 17 148 -151 c82 -83 147 -156 144 -163z"/>
        <path d="M8120 1461 l0 -801 359 0 c397 0 473 8 609 60 116 45 198 97 282 180
143 140 219 315 228 521 17 395 -212 703 -603 811 -75 20 -105 22 -477 26
l-398 3 0 -800z m736 468 c139 -25 261 -118 320 -243 118 -249 28 -547 -196
-654 -89 -42 -157 -52 -347 -52 l-163 0 0 480 0 480 163 0 c90 0 190 -5 223
-11z"/>
        <path d="M16460 1460 l0 -800 175 0 175 0 0 243 1 242 93 96 94 96 248 -338
247 -339 215 0 214 0 -24 33 c-14 17 -168 225 -342 460 l-317 428 228 236
c125 130 272 282 326 339 l99 104 -219 0 -218 0 -320 -347 -320 -347 -3 347
-2 347 -175 0 -175 0 0 -800z"/>
        <path d="M30120 1460 l0 -800 610 0 610 0 0 160 0 160 -435 0 -435 0 0 165 0
165 380 0 381 0 -3 158 -3 157 -377 3 -378 2 0 155 0 155 430 0 430 0 0 160 0
160 -605 0 -605 0 0 -800z"/>
        <path d="M11237 2193 c-4 -3 -7 -75 -7 -160 l0 -153 -75 0 -75 0 0 -150 0
-150 74 0 75 0 3 -347 c3 -338 4 -350 27 -407 34 -85 92 -139 176 -165 119
-37 292 -24 397 30 l38 19 0 141 c0 131 -1 141 -17 134 -83 -34 -168 -44 -218
-25 -50 19 -55 53 -55 350 l0 270 145 0 145 0 0 150 0 150 -145 0 -145 0 0
160 0 160 -168 0 c-93 0 -172 -3 -175 -7z"/>
        <path d="M18685 1897 c-69 -23 -108 -48 -172 -110 l-63 -60 0 76 0 77 -175 0
-175 0 0 -610 0 -610 175 0 174 0 3 387 c3 385 3 388 27 436 34 69 85 101 170
105 108 5 183 -47 211 -147 6 -21 10 -190 10 -408 l0 -373 175 0 175 0 0 438
c0 350 -3 449 -15 500 -32 134 -100 222 -213 275 -57 26 -78 31 -166 34 -66 2
-115 -2 -141 -10z"/>
        <path d="M19942 1891 c-125 -32 -217 -84 -309 -176 -66 -66 -90 -98 -123 -167
-140 -291 -50 -629 214 -806 146 -98 355 -136 532 -98 244 54 436 232 500 467
28 100 23 253 -10 356 -63 194 -210 342 -407 408 -112 37 -286 44 -397 16z
m304 -316 c64 -31 118 -89 152 -164 23 -47 27 -70 27 -146 0 -76 -4 -99 -26
-145 -36 -77 -80 -124 -147 -157 -74 -36 -191 -39 -264 -6 -69 32 -131 94
-164 166 -25 54 -28 74 -28 152 0 97 17 153 70 222 81 107 251 141 380 78z"/>
        <path d="M23933 1891 c-210 -57 -353 -202 -424 -431 -30 -96 -32 -270 -5 -369
45 -164 170 -323 306 -389 256 -124 569 -86 757 92 l66 62 -103 92 -102 92
-36 -31 c-20 -18 -66 -46 -102 -63 -58 -27 -75 -31 -156 -31 -81 0 -97 3 -149
30 -67 34 -114 89 -138 159 l-16 46 431 0 431 0 -6 128 c-9 206 -59 341 -172
461 -108 114 -217 161 -395 167 -92 3 -129 0 -187 -15z m282 -295 c67 -40 104
-96 129 -198 l6 -28 -261 0 -261 0 7 33 c12 54 65 145 102 173 79 60 195 68
278 20z"/>
        <path d="M26823 1896 c-149 -36 -285 -145 -348 -278 -145 -305 -37 -671 235
-800 90 -43 156 -58 253 -58 130 0 229 39 328 128 l59 54 0 -65 c0 -217 -136
-321 -399 -304 -114 8 -190 27 -289 72 l-73 34 -8 -22 c-5 -12 -30 -66 -55
-121 -25 -54 -46 -104 -46 -111 0 -7 26 -24 58 -38 166 -74 324 -102 531 -94
231 8 369 56 476 162 60 61 96 124 126 225 23 74 23 86 27 638 l3 562 -175 0
-176 0 0 -71 0 -71 -51 45 c-102 89 -206 128 -344 126 -44 0 -104 -6 -132 -13z
m374 -309 c105 -54 153 -131 153 -249 0 -90 -16 -133 -71 -193 -58 -63 -125
-90 -224 -89 -125 0 -211 49 -263 148 -22 43 -26 64 -26 131 -1 70 3 87 29
134 57 103 156 155 281 147 49 -3 86 -12 121 -29z"/>
        <path d="M28383 1891 c-210 -57 -353 -202 -424 -431 -30 -96 -32 -270 -5 -369
45 -164 170 -323 306 -389 256 -124 569 -86 757 92 l66 62 -103 92 -102 92
-36 -31 c-20 -18 -66 -46 -102 -63 -58 -27 -75 -31 -156 -31 -81 0 -97 3 -149
30 -67 34 -114 89 -138 159 l-16 46 431 0 431 0 -6 128 c-9 206 -59 341 -172
461 -108 114 -217 161 -395 167 -92 3 -129 0 -187 -15z m282 -295 c67 -40 104
-96 129 -198 l6 -28 -261 0 -261 0 7 33 c12 54 65 145 102 173 79 60 195 68
278 20z"/>
        <path d="M32205 1897 c-69 -23 -108 -48 -172 -110 l-63 -60 0 76 0 77 -175 0
-175 0 0 -610 0 -610 175 0 174 0 3 387 c3 385 3 388 27 436 34 69 85 101 170
105 108 5 183 -47 211 -147 6 -21 10 -190 10 -408 l0 -373 175 0 175 0 0 438
c0 350 -3 449 -15 500 -32 134 -100 222 -213 275 -57 26 -78 31 -166 34 -66 2
-115 -2 -141 -10z"/>
        <path d="M33373 1896 c-149 -36 -285 -145 -348 -278 -145 -305 -37 -671 235
-800 90 -43 156 -58 253 -58 130 0 229 39 328 128 l59 54 0 -65 c0 -217 -136
-321 -399 -304 -114 8 -190 27 -289 72 l-73 34 -8 -22 c-5 -12 -30 -66 -55
-121 -25 -54 -46 -104 -46 -111 0 -7 26 -24 58 -38 166 -74 324 -102 531 -94
231 8 369 56 476 162 60 61 96 124 126 225 23 74 23 86 27 638 l3 562 -175 0
-176 0 0 -71 0 -71 -51 45 c-102 89 -206 128 -344 126 -44 0 -104 -6 -132 -13z
m374 -309 c105 -54 153 -131 153 -249 0 -90 -16 -133 -71 -193 -58 -63 -125
-90 -224 -89 -125 0 -211 49 -263 148 -22 43 -26 64 -26 131 -1 70 3 87 29
134 57 103 156 155 281 147 49 -3 86 -12 121 -29z"/>
        <path d="M35805 1897 c-69 -23 -108 -48 -172 -110 l-63 -60 0 76 0 77 -175 0
-175 0 0 -610 0 -610 175 0 174 0 3 387 c3 385 3 388 27 436 34 69 85 101 170
105 108 5 183 -47 211 -147 6 -21 10 -190 10 -408 l0 -373 175 0 175 0 0 438
c0 350 -3 449 -15 500 -32 134 -100 222 -213 275 -57 26 -78 31 -166 34 -66 2
-115 -2 -141 -10z"/>
        <path d="M37013 1891 c-210 -57 -353 -202 -424 -431 -30 -96 -32 -270 -5 -369
45 -164 170 -323 306 -389 256 -124 569 -86 757 92 l66 62 -103 92 -102 92
-36 -31 c-20 -18 -66 -46 -102 -63 -58 -27 -75 -31 -156 -31 -81 0 -97 3 -149
30 -67 34 -114 89 -138 159 l-16 46 431 0 431 0 -6 128 c-9 206 -59 341 -172
461 -108 114 -217 161 -395 167 -92 3 -129 0 -187 -15z m282 -295 c67 -40 104
-96 129 -198 l6 -28 -261 0 -261 0 7 33 c12 54 65 145 102 173 79 60 195 68
278 20z"/>
        <path d="M38393 1891 c-210 -57 -353 -202 -424 -431 -30 -96 -32 -270 -5 -369
45 -164 170 -323 306 -389 256 -124 569 -86 757 92 l66 62 -103 92 -102 92
-36 -31 c-20 -18 -66 -46 -102 -63 -58 -27 -75 -31 -156 -31 -81 0 -97 3 -149
30 -67 34 -114 89 -138 159 l-16 46 431 0 431 0 -6 128 c-9 206 -59 341 -172
461 -108 114 -217 161 -395 167 -92 3 -129 0 -187 -15z m282 -295 c67 -40 104
-96 129 -198 l6 -28 -261 0 -261 0 7 33 c12 54 65 145 102 173 79 60 195 68
278 20z"/>
        <path d="M39983 1896 c-86 -27 -161 -92 -212 -186 l-31 -55 0 113 0 112 -175
0 -175 0 0 -610 0 -610 175 0 175 0 0 264 c0 145 4 287 10 316 34 177 148 286
312 298 l68 5 0 183 0 184 -52 -1 c-29 0 -72 -6 -95 -13z"/>
        <path d="M41545 1897 c-69 -23 -108 -48 -172 -110 l-63 -60 0 76 0 77 -175 0
-175 0 0 -610 0 -610 175 0 174 0 3 387 c3 385 3 388 27 436 34 69 85 101 170
105 108 5 183 -47 211 -147 6 -21 10 -190 10 -408 l0 -373 175 0 175 0 0 438
c0 350 -3 449 -15 500 -32 134 -100 222 -213 275 -57 26 -78 31 -166 34 -66 2
-115 -2 -141 -10z"/>
        <path d="M42723 1896 c-149 -36 -285 -145 -348 -278 -145 -305 -37 -671 235
-800 90 -43 156 -58 253 -58 130 0 229 39 328 128 l59 54 0 -65 c0 -217 -136
-321 -399 -304 -114 8 -190 27 -289 72 l-73 34 -8 -22 c-5 -12 -30 -66 -55
-121 -25 -54 -46 -104 -46 -111 0 -7 26 -24 58 -38 166 -74 324 -102 531 -94
231 8 369 56 476 162 60 61 96 124 126 225 23 74 23 86 27 638 l3 562 -175 0
-176 0 0 -71 0 -71 -51 45 c-102 89 -206 128 -344 126 -44 0 -104 -6 -132 -13z
m374 -309 c105 -54 153 -131 153 -249 0 -90 -16 -133 -71 -193 -58 -63 -125
-90 -224 -89 -125 0 -211 49 -263 148 -22 43 -26 64 -26 131 -1 70 3 87 29
134 57 103 156 155 281 147 49 -3 86 -12 121 -29z"/>
        <path d="M10140 1885 c-41 -8 -109 -26 -150 -40 -41 -15 -83 -29 -92 -32 -10
-3 -18 -9 -18 -13 0 -4 18 -65 41 -135 37 -118 42 -127 62 -121 170 48 185 50
302 51 106 0 125 -3 168 -24 63 -31 99 -84 105 -157 l5 -54 -29 11 c-57 21
-177 39 -270 39 -236 0 -408 -88 -464 -237 -63 -170 -18 -354 110 -448 68 -50
149 -76 257 -82 143 -9 253 26 361 113 l32 27 0 -62 0 -61 171 0 170 0 -3 433
-3 432 -26 72 c-51 139 -145 228 -288 274 -86 28 -328 36 -441 14z m379 -710
l54 -17 -6 -65 c-7 -87 -41 -136 -122 -178 -51 -26 -69 -30 -139 -30 -129 0
-191 49 -191 150 0 78 48 133 138 156 48 12 205 3 266 -16z"/>
        <path d="M12400 1885 c-41 -8 -109 -26 -150 -40 -41 -15 -83 -29 -92 -32 -10
-3 -18 -9 -18 -13 0 -4 18 -65 41 -135 37 -118 42 -127 62 -121 170 48 185 50
302 51 106 0 125 -3 168 -24 63 -31 99 -84 105 -157 l5 -54 -29 11 c-57 21
-177 39 -270 39 -236 0 -408 -88 -464 -237 -63 -170 -18 -354 110 -448 68 -50
149 -76 257 -82 143 -9 253 26 361 113 l32 27 0 -62 0 -61 171 0 170 0 -3 433
-3 432 -26 72 c-51 139 -145 228 -288 274 -86 28 -328 36 -441 14z m379 -710
l54 -17 -6 -65 c-7 -87 -41 -136 -122 -178 -51 -26 -69 -30 -139 -30 -129 0
-191 49 -191 150 0 78 48 133 138 156 48 12 205 3 266 -16z"/>
        <path d="M21631 1868 c-4 -13 -55 -174 -111 -358 -57 -184 -106 -338 -109
-342 -4 -5 -50 153 -102 350 l-96 357 -178 3 c-166 2 -177 1 -173 -15 3 -10
87 -287 188 -616 l183 -597 158 0 158 0 60 188 c33 103 86 269 118 369 31 100
61 177 64 170 4 -7 53 -158 108 -337 56 -179 107 -340 112 -357 l11 -33 158 0
159 0 35 113 c30 96 327 1050 342 1100 5 16 -8 17 -169 17 l-175 0 -26 -97
c-15 -54 -60 -219 -100 -368 l-73 -270 -38 120 c-21 66 -73 233 -115 370 l-78
250 -151 3 c-149 2 -151 2 -160 -20z"/>
        <path d="M34560 1270 l0 -610 175 0 175 0 0 610 0 610 -175 0 -175 0 0 -610z"/>
        <path d="M40300 1270 l0 -610 175 0 175 0 0 610 0 610 -175 0 -175 0 0 -610z"/>
    </g>
</svg>
