<?xml version="1.0" standalone="no"?>
<!DOCTYPE svg PUBLIC "-//W3C//DTD SVG 20010904//EN"
    "http://www.w3.org/TR/2001/REC-SVG-20010904/DTD/svg10.dtd">
<svg version="1.0" xmlns="http://www.w3.org/2000/svg"
     width="6614.000000pt" height="768.000000pt" viewBox="0 0 6614.000000 768.000000"
     preserveAspectRatio="xMidYMid meet">

    <g transform="translate(0.000000,768.000000) scale(0.100000,-0.100000)"
       fill="#ffffff" stroke="none">
        <path d="M37027 7530 c-104 -33 -159 -84 -208 -195 -18 -40 -24 -74 -27 -172
l-4 -123 -79 0 -79 0 0 -155 0 -155 80 0 80 0 0 -495 0 -495 190 0 190 0 0
495 0 495 145 0 145 0 0 155 0 155 -150 0 -150 0 0 33 c0 132 83 183 236 143
34 -9 65 -16 68 -16 3 0 6 72 6 159 l0 159 -69 16 c-100 23 -298 21 -374 -4z"/>
        <path d="M28670 7370 l0 -170 200 0 200 0 0 170 0 170 -200 0 -200 0 0 -170z"/>
        <path d="M24210 6600 l0 -860 190 0 190 0 0 860 0 860 -190 0 -190 0 0 -860z"/>
        <path d="M3607 5183 l-3 -2258 -21 -110 c-93 -477 -310 -739 -698 -841 -90
-24 -119 -27 -285 -28 -141 -1 -206 3 -273 17 -353 72 -659 258 -1012 614
l-131 132 -530 -590 c-291 -324 -530 -594 -532 -599 -5 -12 135 -165 262 -288
501 -482 1127 -771 1831 -846 403 -43 832 -23 1195 56 673 145 1203 500 1527
1021 198 321 318 674 385 1141 l22 151 3 2343 4 2342 -871 0 -870 0 -3 -2257z"/>
        <path d="M6590 6425 l0 -1014 1912 -1638 1912 -1638 -1912 -3 -1912 -2 0 -835
0 -835 3840 0 3840 0 0 835 0 835 -1911 2 -1910 3 1910 1635 1910 1635 0 1018
c1 559 -2 1017 -6 1017 -5 0 -867 -736 -1916 -1635 -1050 -899 -1912 -1635
-1916 -1635 -3 0 -865 736 -1915 1635 -1049 899 -1912 1635 -1917 1635 -5 0
-9 -423 -9 -1015z"/>
        <path d="M15513 5418 c3 -2211 1 -2114 63 -2488 116 -711 392 -1289 819 -1715
484 -485 1159 -770 1995 -844 332 -30 743 -22 1065 19 634 81 1147 276 1582
601 126 94 408 376 502 502 387 518 599 1161 651 1972 6 99 10 880 10 2067 l0
1908 -850 0 -850 0 -3 -2007 c-3 -2186 1 -2031 -57 -2294 -71 -325 -241 -642
-442 -824 -295 -268 -666 -395 -1147 -395 -310 0 -556 53 -796 170 -483 237
-770 728 -835 1425 -6 70 -10 800 -10 2018 l0 1907 -850 0 -851 0 4 -2022z"/>
        <path d="M27730 7225 l0 -165 -80 0 -80 0 0 -165 0 -165 79 0 80 0 3 -387 c3
-375 4 -390 25 -435 36 -79 71 -116 141 -150 63 -31 74 -33 193 -36 134 -4
199 7 281 49 l38 19 0 155 c0 85 -2 155 -4 155 -2 0 -21 -7 -41 -16 -99 -41
-197 -36 -235 13 -19 25 -20 39 -20 329 l0 304 155 0 155 0 0 165 0 165 -155
0 -155 0 0 165 0 165 -190 0 -190 0 0 -165z"/>
        <path d="M29450 7225 l0 -165 -80 0 -80 0 0 -165 0 -165 79 0 80 0 3 -387 c3
-375 4 -390 25 -435 36 -79 71 -116 141 -150 63 -31 74 -33 193 -36 134 -4
199 7 281 49 l38 19 0 155 c0 85 -2 155 -4 155 -2 0 -21 -7 -41 -16 -99 -41
-197 -36 -235 13 -19 25 -20 39 -20 329 l0 304 155 0 155 0 0 165 0 165 -155
0 -155 0 0 165 0 165 -190 0 -190 0 0 -165z"/>
        <path d="M31970 7225 l0 -165 -80 0 -80 0 0 -165 0 -165 79 0 80 0 3 -387 c3
-375 4 -390 25 -435 36 -79 71 -116 141 -150 63 -31 74 -33 193 -36 134 -4
199 7 281 49 l38 19 0 155 c0 85 -2 155 -4 155 -2 0 -21 -7 -41 -16 -99 -41
-197 -36 -235 13 -19 25 -20 39 -20 329 l0 304 155 0 155 0 0 165 0 165 -155
0 -155 0 0 165 0 165 -190 0 -190 0 0 -165z"/>
        <path d="M25649 7079 c-91 -10 -168 -49 -250 -126 l-69 -65 0 86 0 86 -190 0
-190 0 0 -660 0 -660 190 0 190 0 0 358 c0 357 8 469 34 520 21 40 66 83 106
100 51 21 148 19 195 -6 50 -25 69 -45 97 -107 22 -49 23 -58 26 -457 l4 -408
189 0 190 0 -4 488 c-4 520 -4 528 -57 636 -50 105 -176 197 -288 211 -89 11
-107 11 -173 4z"/>
        <path d="M35702 7079 c-296 -27 -542 -230 -612 -505 -25 -95 -27 -263 -5 -349
56 -221 226 -403 450 -482 75 -26 90 -28 245 -28 146 0 173 3 235 23 192 64
334 184 420 354 51 103 68 196 63 341 -6 137 -31 225 -95 327 -107 170 -315
299 -505 316 -35 3 -74 6 -88 8 -14 1 -63 -1 -108 -5z m219 -357 c179 -87 253
-306 166 -496 -50 -110 -148 -175 -273 -184 -132 -9 -246 49 -312 158 -42 71
-55 119 -54 205 1 155 85 279 222 329 64 23 191 17 251 -12z"/>
        <path d="M33300 7064 c-201 -52 -369 -212 -444 -423 -30 -82 -31 -93 -31 -246
0 -141 3 -168 23 -230 51 -151 132 -260 258 -344 111 -75 207 -103 371 -109
160 -5 247 11 362 69 80 40 214 152 209 174 -3 12 -204 195 -214 195 -3 0 -25
-16 -48 -35 -149 -122 -363 -131 -494 -20 -30 25 -92 134 -92 162 0 11 82 13
461 13 l462 0 -6 128 c-10 232 -68 384 -197 512 -83 84 -163 129 -271 155 -82
19 -275 19 -349 -1z m260 -307 c62 -15 130 -85 159 -160 35 -95 57 -87 -253
-87 l-274 0 10 38 c32 118 115 201 219 221 46 9 65 7 139 -12z"/>
        <path d="M26733 7051 c-125 -36 -220 -113 -272 -221 -24 -50 -26 -66 -26 -175
0 -106 3 -126 23 -168 54 -109 173 -185 387 -247 201 -59 257 -97 239 -162
-29 -99 -230 -98 -423 2 -31 16 -75 41 -98 55 l-43 26 -75 -115 c-42 -64 -78
-123 -81 -131 -4 -10 17 -29 65 -60 153 -99 308 -145 493 -145 135 0 198 11
285 50 83 38 146 98 186 179 31 63 32 70 32 186 0 108 -2 125 -25 169 -51 101
-160 170 -390 251 -188 65 -240 98 -240 150 0 31 54 73 102 80 63 10 190 -24
301 -79 l87 -43 57 101 c30 55 64 116 75 133 l19 32 -33 21 c-70 43 -167 83
-257 106 -118 30 -292 32 -388 5z"/>
        <path d="M28680 6395 l0 -655 190 0 190 0 0 655 0 655 -190 0 -190 0 0 -655z"/>
        <path d="M30373 6563 c3 -409 6 -496 19 -540 42 -138 103 -215 216 -270 l76
-38 135 0 c130 0 139 1 195 29 32 16 89 58 127 93 l69 65 0 -81 0 -81 190 0
190 0 0 655 0 655 -189 0 -189 0 -4 -402 c-4 -353 -6 -409 -21 -448 -22 -56
-79 -116 -126 -131 -55 -18 -142 -14 -187 9 -49 25 -68 46 -96 107 -22 49 -23
58 -26 458 l-4 407 -189 0 -190 0 4 -487z"/>
        <path d="M38137 4910 c-104 -33 -159 -84 -208 -195 -18 -40 -24 -74 -27 -172
l-4 -123 -79 0 -79 0 0 -155 0 -155 80 0 80 0 0 -495 0 -495 190 0 190 0 0
495 0 495 145 0 145 0 0 155 0 155 -150 0 -150 0 0 33 c0 132 83 183 236 143
34 -9 65 -16 68 -16 3 0 6 72 6 159 l0 159 -69 16 c-100 23 -298 21 -374 -4z"/>
        <path d="M28660 4750 l0 -170 200 0 200 0 0 170 0 170 -200 0 -200 0 0 -170z"/>
        <path d="M46080 4750 l0 -170 200 0 200 0 0 170 0 170 -200 0 -200 0 0 -170z"/>
        <path d="M24200 3986 l0 -866 479 0 c511 0 560 4 686 51 147 55 237 144 280
277 13 41 16 80 14 170 -4 105 -7 123 -33 177 -38 77 -105 141 -195 189 l-72
38 38 27 c127 93 183 220 170 388 -11 150 -100 275 -243 344 -122 58 -155 61
-661 66 l-463 5 0 -866z m898 484 c57 -32 83 -76 84 -138 0 -62 -22 -105 -70
-137 -57 -37 -110 -44 -334 -45 l-208 0 0 176 0 175 243 -3 c236 -3 243 -4
285 -28z m-28 -650 c102 -14 159 -44 188 -100 45 -89 15 -185 -73 -230 -49
-25 -52 -25 -332 -28 l-283 -3 0 185 0 186 213 0 c116 0 246 -5 287 -10z"/>
        <path d="M35580 3980 l0 -860 190 0 190 0 0 860 0 860 -190 0 -190 0 0 -860z"/>
        <path d="M45140 4605 l0 -165 -80 0 -80 0 0 -165 0 -165 79 0 80 0 3 -387 c3
-375 4 -390 25 -435 36 -79 71 -116 141 -150 63 -31 74 -33 193 -36 134 -4
199 7 281 49 l38 19 0 155 c0 85 -2 155 -4 155 -2 0 -21 -7 -41 -16 -99 -41
-197 -36 -235 13 -19 25 -20 39 -20 329 l0 304 155 0 155 0 0 165 0 165 -155
0 -155 0 0 165 0 165 -190 0 -190 0 0 -165z"/>
        <path d="M30059 4459 c-91 -10 -168 -49 -250 -126 l-69 -65 0 86 0 86 -190 0
-190 0 0 -660 0 -660 190 0 190 0 0 358 c0 357 8 469 34 520 21 40 66 83 106
100 51 21 148 19 195 -6 50 -25 69 -45 97 -107 22 -49 23 -58 26 -457 l4 -408
189 0 190 0 -4 488 c-4 520 -4 528 -57 636 -50 105 -176 197 -288 211 -89 11
-107 11 -173 4z"/>
        <path d="M37019 4459 c-91 -10 -168 -49 -250 -126 l-69 -65 0 86 0 86 -190 0
-190 0 0 -660 0 -660 190 0 190 0 0 358 c0 357 8 469 34 520 21 40 66 83 106
100 51 21 148 19 195 -6 50 -25 69 -45 97 -107 22 -49 23 -58 26 -457 l4 -408
189 0 190 0 -4 488 c-4 520 -4 528 -57 636 -50 105 -176 197 -288 211 -89 11
-107 11 -173 4z"/>
        <path d="M39302 4459 c-296 -27 -542 -230 -612 -505 -25 -95 -27 -263 -5 -349
56 -221 226 -403 450 -482 75 -26 90 -28 245 -28 146 0 173 3 235 23 192 64
334 184 420 354 51 103 68 196 63 341 -6 137 -31 225 -95 327 -107 170 -315
299 -505 316 -35 3 -74 6 -88 8 -14 1 -63 -1 -108 -5z m219 -357 c179 -87 253
-306 166 -496 -50 -110 -148 -175 -273 -184 -132 -9 -246 49 -312 158 -42 71
-55 119 -54 205 1 155 85 279 222 329 64 23 191 17 251 -12z"/>
        <path d="M42032 4458 c-91 -10 -181 -55 -258 -129 l-64 -62 0 86 0 87 -190 0
-190 0 0 -660 0 -660 190 0 190 0 0 358 c0 196 5 389 10 427 20 136 93 208
214 208 101 0 163 -41 196 -130 19 -51 20 -78 20 -458 l0 -405 190 0 190 0 0
358 c0 196 5 389 10 427 20 136 93 208 214 208 101 0 163 -41 196 -130 19 -51
20 -78 20 -458 l0 -405 190 0 190 0 0 486 c0 410 -2 496 -16 547 -21 80 -46
129 -97 184 -81 88 -180 125 -335 124 -152 0 -267 -44 -378 -144 l-50 -45 -44
50 c-96 112 -226 156 -398 136z"/>
        <path d="M47315 4458 c-149 -12 -326 -97 -423 -203 -61 -65 -110 -147 -145
-239 -26 -71 -31 -97 -35 -211 -5 -158 10 -232 71 -355 32 -65 59 -103 117
-160 84 -84 154 -129 262 -168 68 -25 84 -27 243 -27 159 0 175 2 242 26 85
31 190 99 253 163 l44 46 -113 114 -114 114 -50 -40 c-87 -68 -142 -91 -232
-96 -65 -3 -91 0 -137 18 -181 68 -265 308 -175 503 34 74 78 121 149 157 117
58 246 36 367 -61 l64 -51 106 112 c58 62 110 120 115 128 7 12 -5 29 -51 73
-134 125 -318 177 -558 157z"/>
        <path d="M31300 4444 c-201 -52 -369 -212 -444 -423 -30 -82 -31 -93 -31 -246
0 -141 3 -168 23 -230 51 -151 132 -260 258 -344 111 -75 207 -103 371 -109
160 -5 247 11 362 69 80 40 214 152 209 174 -3 12 -204 195 -214 195 -3 0 -25
-16 -48 -35 -149 -122 -363 -131 -494 -20 -30 25 -92 134 -92 162 0 11 82 13
461 13 l462 0 -6 128 c-10 232 -68 384 -197 512 -83 84 -163 129 -271 155 -82
19 -275 19 -349 -1z m260 -307 c62 -15 130 -85 159 -160 35 -95 57 -87 -253
-87 l-274 0 10 38 c32 118 115 201 219 221 46 9 65 7 139 -12z"/>
        <path d="M40970 4443 c-88 -31 -156 -90 -214 -187 l-36 -60 0 117 0 117 -190
0 -190 0 0 -655 0 -655 189 0 189 0 5 298 c5 317 11 361 61 460 30 59 102 127
164 155 29 12 76 22 125 25 l77 5 0 198 0 199 -67 0 c-38 -1 -88 -8 -113 -17z"/>
        <path d="M44085 4448 c-160 -10 -395 -75 -395 -110 0 -7 21 -75 46 -150 l45
-137 42 15 c166 59 372 75 462 35 84 -37 127 -92 138 -179 5 -41 4 -44 -16
-38 -149 44 -373 54 -500 23 -241 -60 -365 -239 -329 -474 35 -224 194 -343
457 -343 145 0 243 31 337 105 l43 35 3 -55 3 -55 184 0 185 0 0 443 c0 406
-2 450 -19 520 -26 99 -52 149 -114 214 -116 122 -290 169 -572 151z m205
-763 c25 -3 66 -13 93 -21 47 -16 47 -16 47 -61 0 -132 -76 -215 -221 -243
-145 -28 -263 42 -261 155 1 99 66 158 192 174 55 8 63 7 150 -4z"/>
        <path d="M27713 4431 c-125 -36 -220 -113 -272 -221 -24 -50 -26 -66 -26 -175
0 -106 3 -126 23 -168 54 -109 173 -185 387 -247 201 -59 257 -97 239 -162
-29 -99 -230 -98 -423 2 -31 16 -75 41 -98 55 l-43 26 -75 -115 c-42 -64 -78
-123 -81 -131 -4 -10 17 -29 65 -60 153 -99 308 -145 493 -145 135 0 198 11
285 50 83 38 146 98 186 179 31 63 32 70 32 186 0 108 -2 125 -25 169 -51 101
-160 170 -390 251 -188 65 -240 98 -240 150 0 31 54 73 102 80 63 10 190 -24
301 -79 l87 -43 57 101 c30 55 64 116 75 133 l19 32 -33 21 c-70 43 -167 83
-257 106 -118 30 -292 32 -388 5z"/>
        <path d="M32613 4431 c-125 -36 -220 -113 -272 -221 -24 -50 -26 -66 -26 -175
0 -106 3 -126 23 -168 54 -109 173 -185 387 -247 201 -59 257 -97 239 -162
-29 -99 -230 -98 -423 2 -31 16 -75 41 -98 55 l-43 26 -75 -115 c-42 -64 -78
-123 -81 -131 -4 -10 17 -29 65 -60 153 -99 308 -145 493 -145 135 0 198 11
285 50 83 38 146 98 186 179 31 63 32 70 32 186 0 108 -2 125 -25 169 -51 101
-160 170 -390 251 -188 65 -240 98 -240 150 0 31 54 73 102 80 63 10 190 -24
301 -79 l87 -43 57 101 c30 55 64 116 75 133 l19 32 -33 21 c-70 43 -167 83
-257 106 -118 30 -292 32 -388 5z"/>
        <path d="M33823 4431 c-125 -36 -220 -113 -272 -221 -24 -50 -26 -66 -26 -175
0 -106 3 -126 23 -168 54 -109 173 -185 387 -247 201 -59 257 -97 239 -162
-29 -99 -230 -98 -423 2 -31 16 -75 41 -98 55 l-43 26 -75 -115 c-42 -64 -78
-123 -81 -131 -4 -10 17 -29 65 -60 153 -99 308 -145 493 -145 135 0 198 11
285 50 83 38 146 98 186 179 31 63 32 70 32 186 0 108 -2 125 -25 169 -51 101
-160 170 -390 251 -188 65 -240 98 -240 150 0 31 54 73 102 80 63 10 190 -24
301 -79 l87 -43 57 101 c30 55 64 116 75 133 l19 32 -33 21 c-70 43 -167 83
-257 106 -118 30 -292 32 -388 5z"/>
        <path d="M48453 4431 c-125 -36 -220 -113 -272 -221 -24 -50 -26 -66 -26 -175
0 -106 3 -126 23 -168 54 -109 173 -185 387 -247 201 -59 257 -97 239 -162
-29 -99 -230 -98 -423 2 -31 16 -75 41 -98 55 l-43 26 -75 -115 c-42 -64 -78
-123 -81 -131 -4 -10 17 -29 65 -60 153 -99 308 -145 493 -145 135 0 198 11
285 50 83 38 146 98 186 179 31 63 32 70 32 186 0 108 -2 125 -25 169 -51 101
-160 170 -390 251 -188 65 -240 98 -240 150 0 31 54 73 102 80 63 10 190 -24
301 -79 l87 -43 57 101 c30 55 64 116 75 133 l19 32 -33 21 c-70 43 -167 83
-257 106 -118 30 -292 32 -388 5z"/>
        <path d="M25913 3943 c3 -409 6 -496 19 -540 42 -138 103 -215 216 -270 l76
-38 135 0 c130 0 139 1 195 29 32 16 89 58 127 93 l69 65 0 -81 0 -81 190 0
190 0 0 655 0 655 -189 0 -189 0 -4 -402 c-4 -353 -6 -409 -21 -448 -22 -56
-79 -116 -126 -131 -55 -18 -142 -14 -187 9 -49 25 -68 46 -96 107 -22 49 -23
58 -26 458 l-4 407 -189 0 -190 0 4 -487z"/>
        <path d="M28670 3775 l0 -655 190 0 190 0 0 655 0 655 -190 0 -190 0 0 -655z"/>
        <path d="M46090 3775 l0 -655 190 0 190 0 0 655 0 655 -190 0 -190 0 0 -655z"/>
        <path d="M50110 3885 l0 -175 530 0 530 0 0 175 0 175 -530 0 -530 0 0 -175z"/>
        <path d="M40020 1390 l0 -900 190 0 190 0 0 900 0 900 -190 0 -190 0 0 -900z"/>
        <path d="M43150 1969 l0 -322 -53 51 c-60 56 -151 106 -224 123 -26 6 -92 10
-145 10 -265 0 -476 -166 -563 -441 -12 -38 -19 -103 -22 -211 -5 -136 -3
-166 16 -240 31 -125 81 -219 162 -304 116 -122 243 -175 420 -175 157 0 264
44 363 150 l46 49 0 -84 0 -85 190 0 190 0 0 900 0 900 -190 0 -190 0 0 -321z
m-202 -484 c119 -50 202 -190 202 -340 0 -224 -177 -395 -368 -356 -104 21
-181 85 -231 191 -23 49 -26 67 -26 165 0 98 3 116 26 165 77 165 244 238 397
175z"/>
        <path d="M52500 2120 l0 -170 200 0 200 0 0 170 0 170 -200 0 -200 0 0 -170z"/>
        <path d="M58650 2120 l0 -170 200 0 200 0 0 170 0 170 -200 0 -200 0 0 -170z"/>
        <path d="M31127 2225 c-138 -38 -246 -124 -304 -243 l-38 -76 0 -131 c1 -119
3 -135 28 -195 15 -36 39 -82 52 -102 l24 -37 -63 -35 c-182 -102 -266 -242
-266 -446 0 -124 24 -206 84 -287 104 -141 269 -213 491 -213 173 0 308 41
442 136 l66 46 96 -96 c53 -53 100 -96 105 -96 14 0 275 184 276 195 0 5 -55
65 -122 132 l-121 121 70 109 c39 59 89 142 112 184 l41 76 -141 78 c-77 42
-145 73 -149 69 -4 -5 -31 -51 -59 -102 -28 -50 -64 -112 -79 -137 l-28 -45
-107 108 -107 108 62 31 c126 62 207 139 257 243 24 50 26 66 26 180 0 120 -1
128 -32 193 -54 114 -159 198 -288 232 -73 19 -260 19 -328 0z m226 -299 c45
-19 74 -54 85 -104 23 -99 -29 -178 -155 -240 l-54 -27 -20 25 c-33 41 -68
116 -75 157 -21 135 100 240 219 189z m-94 -892 c84 -85 151 -160 149 -167 -2
-7 -38 -29 -80 -50 -66 -34 -84 -39 -145 -39 -104 0 -180 40 -220 115 -21 41
-18 127 5 174 22 43 104 123 125 123 8 0 83 -70 166 -156z"/>
        <path d="M24200 1350 l0 -872 403 5 c351 4 413 8 492 25 281 62 493 227 611
475 59 126 69 181 68 377 0 164 -2 180 -28 260 -16 47 -37 103 -49 125 -113
224 -335 389 -602 447 -78 17 -142 21 -492 25 l-403 5 0 -872z m809 495 c90
-24 163 -65 226 -129 104 -105 151 -239 142 -401 -9 -148 -55 -252 -149 -342
-114 -107 -203 -133 -462 -133 l-186 0 0 510 0 510 188 0 c130 0 203 -5 241
-15z"/>
        <path d="M47760 1355 l0 -865 660 0 660 0 0 170 0 170 -470 0 -470 0 0 180 0
180 410 0 410 0 0 170 0 170 -410 0 -410 0 0 170 0 170 465 0 465 0 0 175 0
175 -655 0 -655 0 0 -865z"/>
        <path d="M33140 1350 l0 -860 190 0 190 0 0 259 0 259 98 102 97 102 263 -361
263 -361 236 0 c233 0 235 0 222 20 -8 11 -172 234 -366 495 l-352 475 296
307 c163 170 321 334 352 366 l55 57 -241 0 -241 0 -339 -366 -338 -367 -3
367 -2 366 -190 0 -190 0 0 -860z"/>
        <path d="M27520 1975 l0 -165 -80 0 -80 0 0 -165 0 -165 79 0 80 0 3 -387 c3
-375 4 -390 25 -435 36 -79 71 -116 141 -150 63 -31 74 -33 193 -36 134 -4
199 7 281 49 l38 19 0 155 c0 85 -2 155 -4 155 -2 0 -21 -7 -41 -16 -99 -41
-197 -36 -235 13 -19 25 -20 39 -20 329 l0 304 155 0 155 0 0 165 0 165 -155
0 -155 0 0 165 0 165 -190 0 -190 0 0 -165z"/>
        <path d="M35569 1829 c-91 -10 -168 -49 -250 -126 l-69 -65 0 86 0 86 -190 0
-190 0 0 -660 0 -660 190 0 190 0 0 358 c0 357 8 469 34 520 21 40 66 83 106
100 51 21 148 19 195 -6 50 -25 69 -45 97 -107 22 -49 23 -58 26 -457 l4 -408
189 0 190 0 -4 488 c-4 520 -4 528 -57 636 -50 105 -176 197 -288 211 -89 11
-107 11 -173 4z"/>
        <path d="M36952 1829 c-296 -27 -542 -230 -612 -505 -25 -95 -27 -263 -5 -349
56 -221 226 -403 450 -482 75 -26 90 -28 245 -28 146 0 173 3 235 23 192 64
334 184 420 354 51 103 68 196 63 341 -6 137 -31 225 -95 327 -107 170 -315
299 -505 316 -35 3 -74 6 -88 8 -14 1 -63 -1 -108 -5z m219 -357 c179 -87 253
-306 166 -496 -50 -110 -148 -175 -273 -184 -132 -9 -246 49 -312 158 -42 71
-55 119 -54 205 1 155 85 279 222 329 64 23 191 17 251 -12z"/>
        <path d="M50049 1829 c-91 -10 -168 -49 -250 -126 l-69 -65 0 86 0 86 -190 0
-190 0 0 -660 0 -660 190 0 190 0 0 358 c0 357 8 469 34 520 21 40 66 83 106
100 51 21 148 19 195 -6 50 -25 69 -45 97 -107 22 -49 23 -58 26 -457 l4 -408
189 0 190 0 -4 488 c-4 520 -4 528 -57 636 -50 105 -176 197 -288 211 -89 11
-107 11 -173 4z"/>
        <path d="M53909 1829 c-91 -10 -168 -49 -250 -126 l-69 -65 0 86 0 86 -190 0
-190 0 0 -660 0 -660 190 0 190 0 0 358 c0 357 8 469 34 520 21 40 66 83 106
100 51 21 148 19 195 -6 50 -25 69 -45 97 -107 22 -49 23 -58 26 -457 l4 -408
189 0 190 0 -4 488 c-4 520 -4 528 -57 636 -50 105 -176 197 -288 211 -89 11
-107 11 -173 4z"/>
        <path d="M60059 1829 c-91 -10 -168 -49 -250 -126 l-69 -65 0 86 0 86 -190 0
-190 0 0 -660 0 -660 190 0 190 0 0 358 c0 357 8 469 34 520 21 40 66 83 106
100 51 21 148 19 195 -6 50 -25 69 -45 97 -107 22 -49 23 -58 26 -457 l4 -408
189 0 190 0 -4 488 c-4 520 -4 528 -57 636 -50 105 -176 197 -288 211 -89 11
-107 11 -173 4z"/>
        <path d="M26465 1818 c-160 -10 -395 -75 -395 -110 0 -7 21 -75 46 -150 l45
-137 42 15 c166 59 372 75 462 35 84 -37 127 -92 138 -179 5 -41 4 -44 -16
-38 -149 44 -373 54 -500 23 -241 -60 -365 -239 -329 -474 35 -224 194 -343
457 -343 145 0 243 31 337 105 l43 35 3 -55 3 -55 184 0 185 0 0 443 c0 406
-2 450 -19 520 -26 99 -52 149 -114 214 -116 122 -290 169 -572 151z m205
-763 c25 -3 66 -13 93 -21 47 -16 47 -16 47 -61 0 -132 -76 -215 -221 -243
-145 -28 -263 42 -261 155 1 99 66 158 192 174 55 8 63 7 150 -4z"/>
        <path d="M28885 1818 c-160 -10 -395 -75 -395 -110 0 -7 21 -75 46 -150 l45
-137 42 15 c166 59 372 75 462 35 84 -37 127 -92 138 -179 5 -41 4 -44 -16
-38 -149 44 -373 54 -500 23 -241 -60 -365 -239 -329 -474 35 -224 194 -343
457 -343 145 0 243 31 337 105 l43 35 3 -55 3 -55 184 0 185 0 0 443 c0 406
-2 450 -19 520 -26 99 -52 149 -114 214 -116 122 -290 169 -572 151z m205
-763 c25 -3 66 -13 93 -21 47 -16 47 -16 47 -61 0 -132 -76 -215 -221 -243
-145 -28 -263 42 -261 155 1 99 66 158 192 174 55 8 63 7 150 -4z"/>
        <path d="M41130 1814 c-201 -52 -369 -212 -444 -423 -30 -82 -31 -93 -31 -246
0 -141 3 -168 23 -230 51 -151 132 -260 258 -344 111 -75 207 -103 371 -109
160 -5 247 11 362 69 80 40 214 152 209 174 -3 12 -204 195 -214 195 -3 0 -25
-16 -48 -35 -149 -122 -363 -131 -494 -20 -30 25 -92 134 -92 162 0 11 82 13
461 13 l462 0 -6 128 c-10 232 -68 384 -197 512 -83 84 -163 129 -271 155 -82
19 -275 19 -349 -1z m260 -307 c62 -15 130 -85 159 -160 35 -95 57 -87 -253
-87 l-274 0 10 38 c32 118 115 201 219 221 46 9 65 7 139 -12z"/>
        <path d="M44201 1814 c-192 -52 -346 -206 -400 -404 -29 -105 -29 -286 0 -390
43 -157 141 -282 275 -352 97 -51 169 -68 289 -68 161 0 256 36 366 137 l62
58 -6 -75 c-15 -187 -95 -277 -277 -310 -126 -23 -317 8 -459 75 -41 20 -78
32 -82 28 -10 -10 -131 -275 -127 -278 16 -14 120 -58 186 -79 132 -41 239
-56 411 -56 351 0 554 97 656 312 67 141 68 148 72 801 l4 587 -190 0 -191 0
0 -76 0 -76 -56 50 c-61 55 -154 105 -224 121 -65 15 -246 12 -309 -5z m412
-332 c236 -103 234 -430 -2 -536 -48 -22 -76 -27 -134 -27 -131 0 -226 52
-282 152 -27 49 -30 63 -30 144 0 81 3 95 29 143 79 141 259 195 419 124z"/>
        <path d="M45890 1814 c-201 -52 -369 -212 -444 -423 -30 -82 -31 -93 -31 -246
0 -141 3 -168 23 -230 51 -151 132 -260 258 -344 111 -75 207 -103 371 -109
160 -5 247 11 362 69 80 40 214 152 209 174 -3 12 -204 195 -214 195 -3 0 -25
-16 -48 -35 -149 -122 -363 -131 -494 -20 -30 25 -92 134 -92 162 0 11 82 13
461 13 l462 0 -6 128 c-10 232 -68 384 -197 512 -83 84 -163 129 -271 155 -82
19 -275 19 -349 -1z m260 -307 c62 -15 130 -85 159 -160 35 -95 57 -87 -253
-87 l-274 0 10 38 c32 118 115 201 219 221 46 9 65 7 139 -12z"/>
        <path d="M51231 1814 c-192 -52 -346 -206 -400 -404 -29 -105 -29 -286 0 -390
43 -157 141 -282 275 -352 97 -51 169 -68 289 -68 161 0 256 36 366 137 l62
58 -6 -75 c-15 -187 -95 -277 -277 -310 -126 -23 -317 8 -459 75 -41 20 -78
32 -82 28 -10 -10 -131 -275 -127 -278 16 -14 120 -58 186 -79 132 -41 239
-56 411 -56 351 0 554 97 656 312 67 141 68 148 72 801 l4 587 -190 0 -191 0
0 -76 0 -76 -56 50 c-61 55 -154 105 -224 121 -65 15 -246 12 -309 -5z m412
-332 c236 -103 234 -430 -2 -536 -48 -22 -76 -27 -134 -27 -131 0 -226 52
-282 152 -27 49 -30 63 -30 144 0 81 3 95 29 143 79 141 259 195 419 124z"/>
        <path d="M55140 1814 c-201 -52 -369 -212 -444 -423 -30 -82 -31 -93 -31 -246
0 -141 3 -168 23 -230 51 -151 132 -260 258 -344 111 -75 207 -103 371 -109
160 -5 247 11 362 69 80 40 214 152 209 174 -3 12 -204 195 -214 195 -3 0 -25
-16 -48 -35 -149 -122 -363 -131 -494 -20 -30 25 -92 134 -92 162 0 11 82 13
461 13 l462 0 -6 128 c-10 232 -68 384 -197 512 -83 84 -163 129 -271 155 -82
19 -275 19 -349 -1z m260 -307 c62 -15 130 -85 159 -160 35 -95 57 -87 -253
-87 l-274 0 10 38 c32 118 115 201 219 221 46 9 65 7 139 -12z"/>
        <path d="M56620 1814 c-201 -52 -369 -212 -444 -423 -30 -82 -31 -93 -31 -246
0 -141 3 -168 23 -230 51 -151 132 -260 258 -344 111 -75 207 -103 371 -109
160 -5 247 11 362 69 80 40 214 152 209 174 -3 12 -204 195 -214 195 -3 0 -25
-16 -48 -35 -149 -122 -363 -131 -494 -20 -30 25 -92 134 -92 162 0 11 82 13
461 13 l462 0 -6 128 c-10 232 -68 384 -197 512 -83 84 -163 129 -271 155 -82
19 -275 19 -349 -1z m260 -307 c62 -15 130 -85 159 -160 35 -95 57 -87 -253
-87 l-274 0 10 38 c32 118 115 201 219 221 46 9 65 7 139 -12z"/>
        <path d="M58310 1813 c-88 -31 -156 -90 -214 -187 l-36 -60 0 117 0 117 -190
0 -190 0 0 -655 0 -655 189 0 189 0 5 298 c5 317 11 361 61 460 30 59 102 127
164 155 29 12 76 22 125 25 l77 5 0 198 0 199 -67 0 c-38 -1 -88 -8 -113 -17z"/>
        <path d="M61231 1814 c-192 -52 -346 -206 -400 -404 -29 -105 -29 -286 0 -390
43 -157 141 -282 275 -352 97 -51 169 -68 289 -68 161 0 256 36 366 137 l62
58 -6 -75 c-15 -187 -95 -277 -277 -310 -126 -23 -317 8 -459 75 -41 20 -78
32 -82 28 -10 -10 -131 -275 -127 -278 16 -14 120 -58 186 -79 132 -41 239
-56 411 -56 351 0 554 97 656 312 67 141 68 148 72 801 l4 587 -190 0 -191 0
0 -76 0 -76 -56 50 c-61 55 -154 105 -224 121 -65 15 -246 12 -309 -5z m412
-332 c236 -103 234 -430 -2 -536 -48 -22 -76 -27 -134 -27 -131 0 -226 52
-282 152 -27 49 -30 63 -30 144 0 81 3 95 29 143 79 141 259 195 419 124z"/>
        <path d="M38637 1698 c-20 -62 -73 -233 -118 -380 -46 -148 -85 -268 -89 -268
-3 0 -50 169 -105 375 l-100 375 -192 0 c-148 0 -193 -3 -193 -12 0 -7 90
-303 199 -658 l199 -645 174 -3 174 -2 125 389 c68 215 127 384 130 378 4 -7
60 -182 125 -389 l118 -378 175 0 176 0 200 645 c110 355 201 652 203 660 3
13 -23 15 -187 15 l-189 0 -14 -47 c-8 -27 -54 -198 -104 -380 -49 -183 -91
-333 -94 -333 -3 0 -59 173 -124 385 l-120 385 -167 0 -167 0 -35 -112z"/>
        <path d="M52510 1145 l0 -655 190 0 190 0 0 655 0 655 -190 0 -190 0 0 -655z"/>
        <path d="M58660 1145 l0 -655 190 0 190 0 0 655 0 655 -190 0 -190 0 0 -655z"/>
    </g>
</svg>
