<svg xmlns="http://www.w3.org/2000/svg" xmlns:xlink="http://www.w3.org/1999/xlink" id="body_1" width="151" height="72">

  <g transform="matrix(0.2400819 0 0 0.2400819 0.1327748 -0)">
    <path transform="matrix(1 0 0 1 -92.74756 -92.73041)"  d="M415.21777 311.09326L408.18 311.09326L408.18 331.04852L392.99353 311.09326L386.41876 311.09326L386.41876 343.50342L393.45654 343.50342L393.45654 322.89984L409.15228 343.50342L415.21777 343.50342L415.21777 311.09326zM326.145 392.1187L333.27548 392.1187L333.27548 359.7085L326.145 359.7085zM367.69705 310.8615L361.12265 310.8615L347.23245 343.50342L354.50146 343.50342L357.46472 336.2344L371.16956 336.2344L374.1328 343.50342L381.58722 343.50342zM360.01132 329.9372L364.31717 319.42725L368.62302 329.9372zM386.18008 378.96954L401.4592 378.96954L401.4592 372.626L386.18005 372.626L386.18005 366.0516L403.5428 366.0516L403.5428 359.7085L379.096 359.7085L379.096 392.1187L403.7741 392.1187L403.7741 385.77563L386.1801 385.77563zM356.56058 382.53436L348.0875 359.7085L340.2165 359.7085L353.31934 392.3504L359.616 392.3504L372.71927 359.7085L365.03317 359.7085zM342.4243 343.50342L342.4243 311.09326L335.2938 311.09326L335.2938 323.91846L322.1446 323.91846L322.1446 311.09326L315.01416 311.09326L315.01416 343.50342L322.1446 343.50342L322.1446 330.49286L335.29376 330.49286L335.29376 343.50342zM309.0596 379.66382L293.8731 359.7085L287.29828 359.7085L287.29828 392.1187L294.33606 392.1187L294.33606 371.51514L310.03186 392.1187L316.09735 392.1187L316.09735 359.7085L309.05957 359.7085zM538.3224 350.91107L531.5626 350.91107L531.5626 357.16193L538.3224 357.16193zM485.01575 337.16034L467.42175 337.16034L467.42175 330.35425L482.70087 330.35425L482.70087 324.01074L467.4217 324.01074L467.4217 317.43634L484.78442 317.43634L484.78442 311.09326L460.3376 311.09326L460.3376 343.50342L485.0157 343.50342zM270.5689 378.27484C 270.5689 383.41437 267.93005 386.05322 263.5779 386.05322C 259.2253 386.05322 256.58646 383.32172 256.58646 378.04358L256.58646 378.04358L256.58646 359.7085L249.45602 359.7085L249.45602 378.2285C 249.45602 387.76648 254.78049 392.62802 263.4852 392.62802C 272.18954 392.62802 277.69937 387.81284 277.69937 377.99722L277.69937 377.99722L277.69937 359.7085L270.56894 359.7085zM545.5435 264.08606C 595.36176 264.08606 626.8965 236.52582 626.8965 180.34747L626.8965 180.34747L626.8965 92.74756L586.0872 92.74756L586.0872 181.93857C 586.0872 211.35324 570.9837 226.45676 546.0724 226.45676C 521.16327 226.45676 506.05975 210.82217 506.05975 180.613L506.05975 180.613L506.05975 92.74756L465.2505 92.74756L465.2505 181.673C 465.2505 236.26245 495.72522 264.08606 545.5435 264.08606zM423.355 311.09326L423.355 343.50342L430.3928 343.50342L430.3928 322.89984L446.0886 343.50342L452.15408 343.50342L452.15408 311.09326L445.1163 311.09326L445.1163 331.04852L429.92984 311.09326zM266.07532 340.95685C 268.0199 339.01227 269.13123 336.14166 269.13123 332.29886L269.13123 332.29886L269.13123 311.09326L261.8158 311.09326L261.8158 331.9745C 261.8158 335.72504 260.14886 337.34528 257.46362 337.34528C 255.19463 337.34528 253.3891 336.14166 251.53717 334.10443L251.53717 334.10443L247.04596 339.10492C 249.63838 342.2776 253.55278 344.07242 257.64856 343.96643C 261.16748 343.96643 264.08435 342.94775 266.07532 340.95685zM177.28058 195.18823C 177.28058 216.6518 167.74048 225.92639 152.37146 225.92639C 139.3858 225.92639 129.05127 219.03738 118.45331 207.37726L118.45331 207.37726L92.74756 235.99756C 105.46765 251.10107 124.54785 263.82117 153.43146 263.82117C 173.57166 263.82117 190.26624 257.99216 201.66083 246.59766C 212.78983 235.46643 219.14983 219.03741 219.14983 197.04272L219.14983 197.04272L219.14983 92.74823L177.28058 92.74823zM434.94775 92.73041L342.2002 172.18741L249.45264 92.73041L249.45264 141.75421L342.2002 221.194L434.94775 141.75424zM434.94775 221.19397L249.45264 221.19397L249.45264 261.53098L434.94775 261.53098zM309.44647 327.29834L309.44647 327.20563C 309.44647 317.992 302.27014 310.53763 292.2691 310.53763C 282.26807 310.53763 274.999 318.0843 274.999 327.29834L274.999 327.29834L274.999 327.391C 274.999 336.60468 282.17538 344.05908 292.17642 344.05908C 302.17746 344.05908 309.44647 336.512 309.44647 327.29834zM282.45346 327.29834L282.45346 327.20563C 282.45346 321.64948 286.43533 317.11194 292.17645 317.11194C 297.91797 317.11194 301.99207 321.7422 301.99207 327.29834L301.99207 327.29834L301.99207 327.391C 301.99207 332.94678 298.0102 337.4843 292.26907 337.4843C 286.52795 337.4843 282.45343 332.8545 282.45343 327.29834zM577.2257 330.35425L592.5048 330.35425L592.5048 324.01074L577.2257 324.01074L577.2257 317.43634L594.58844 317.43634L594.58844 311.09326L570.1416 311.09326L570.1416 343.50342L594.8197 343.50342L594.8197 337.16034L577.2257 337.16034zM616.19946 359.7085L609.069 359.7085L609.069 392.1187L632.35815 392.1187L632.35815 385.6366L616.19946 385.6366zM639.2614 392.1187L646.39185 392.1187L646.39185 359.7085L639.2614 359.7085zM627.38043 322.3905L627.38043 322.29785C 627.38043 315.6767 622.7043 311.09326 614.97186 311.09326L614.97186 311.09326L601.73 311.09326L601.73 343.50342L608.8604 343.50342L608.8604 333.78043L614.2776 333.78043C 621.54663 333.78046 627.38043 329.89124 627.38043 322.3905zM608.8604 317.529L614.37024 317.529C 617.93506 317.529 620.1577 319.24194 620.1577 322.43683L620.1577 322.43683L620.1577 322.5291C 620.1577 325.30737 618.0741 327.43738 614.50885 327.43738L614.50885 327.43738L608.8604 327.43738zM639.85583 311.09326L632.7254 311.09326L632.7254 343.50342L656.0146 343.50342L656.0146 337.0213L639.85583 337.0213zM678.12573 379.66382L662.9393 359.7085L656.36444 359.7085L656.36444 392.1187L663.4022 392.1187L663.4022 371.51514L679.098 392.1187L685.1635 392.1187L685.1635 359.7085L678.12573 359.7085zM699.7122 333.13214L705.31433 333.13214L712.2594 343.50342L720.5934 343.50342L712.676 331.9281C 716.99084 330.52716 719.8351 326.41266 719.62115 321.88116L719.62115 321.88116L719.62115 321.7885C 719.7326 319.0455 718.7308 316.37384 716.84326 314.38043C 714.7133 312.2505 711.5188 311.09326 707.39795 311.09326L707.39795 311.09326L692.5818 311.09326L692.5818 343.50342L699.7122 343.50342zM699.7122 317.529L706.796 317.529C 710.26855 317.529 712.3985 319.1029 712.3985 322.1588L712.3985 322.1588L712.3985 322.25146C 712.3985 324.98303 710.4075 326.83533 706.935 326.83533L706.935 326.83533L699.7123 326.83533zM693.20667 365.95892L710.47675 365.95892L692.651 386.7016L692.651 392.1187L719.644 392.1187L719.644 385.8683L701.8187 385.8683L719.644 365.12567L719.644 359.7085L693.20667 359.7085zM668.0775 330.35425L683.3566 330.35425L683.3566 324.01074L668.0775 324.01074L668.0775 317.43634L685.44025 317.43634L685.44025 311.09326L660.99335 311.09326L660.99335 343.50342L685.6715 343.50342L685.6715 337.16034L668.0775 337.16034zM479.99286 392.1187L487.12335 392.1187L487.12335 359.7085L479.99286 359.7085zM503.26056 337.66962C 499.55627 337.66962 496.50037 336.1416 493.5835 333.73413L493.5835 333.73413L489.37036 338.78094C 493.1618 342.1394 498.05655 343.98517 503.12152 343.96643C 510.11298 343.96643 515.0208 340.35486 515.0208 333.91907L515.0208 333.91907L515.0208 333.82678C 515.0208 328.17798 511.31653 325.8167 504.74182 324.1034C 499.1397 322.66815 497.75082 321.97388 497.75082 319.84393L497.75082 319.84393L497.75082 319.75122C 497.75082 318.17694 499.18607 316.927 501.91763 316.927C 504.64957 316.927 507.4738 318.1306 510.34433 320.12152L510.34433 320.12152L514.0486 314.75073C 510.63818 312.0171 506.38046 310.55975 502.01025 310.63025C 495.38916 310.63025 490.6667 314.51947 490.6667 320.3996L490.6667 320.3996L490.6667 320.49225C 490.6667 326.92804 494.87982 328.73358 501.40826 330.40057C 506.82544 331.7895 507.93677 332.71545 507.93677 334.52106L507.93677 334.52106L507.93677 334.6137C 507.9367 336.512 506.17743 337.66962 503.26056 337.66962zM558.34357 366.2829L568.20557 366.2829L568.20557 392.1187L575.3356 392.1187L575.3356 366.2829L585.1976 366.2829L585.1976 359.7085L558.34357 359.7085zM493.99414 366.2829L503.85614 366.2829L503.85614 392.1187L510.9862 392.1187L510.9862 366.2829L520.8482 366.2829L520.8482 359.7085L493.99408 359.7085zM461.39844 372.7187C 455.7959 371.2834 454.40698 370.58917 454.40698 368.45923L454.40698 368.45923L454.40698 368.36652C 454.40698 366.79224 455.8423 365.5423 458.5738 365.5423C 461.30573 365.5423 464.12994 366.7459 467.0005 368.73682L467.0005 368.73682L470.70477 363.36603C 467.2944 360.63235 463.03668 359.17505 458.6665 359.24554C 452.04535 359.24554 447.32288 363.1347 447.32288 369.01483L447.32288 369.01483L447.32288 369.10754C 447.32288 375.54333 451.536 377.34888 458.0645 379.01587C 463.48163 380.4048 464.59296 381.33075 464.59296 383.13635L464.59296 383.13635L464.59296 383.229C 464.59296 385.12726 462.83368 386.2849 459.91638 386.2849C 456.2126 386.2849 453.15668 384.7569 450.23975 382.34943L450.23975 382.34943L446.0266 387.39624C 449.81808 390.75464 454.7128 392.6004 459.77777 392.58167C 466.76923 392.58167 471.67706 388.97015 471.67706 382.53436L471.67706 382.53436L471.67706 382.44208C 471.677 376.7932 467.97278 374.432 461.39838 372.7187zM439.50012 370.49646L439.50012 370.4038C 439.61163 367.6608 438.6098 364.98914 436.72223 362.99573C 434.59222 360.86572 431.39777 359.7085 427.27686 359.7085L427.27686 359.7085L412.46075 359.7085L412.46075 392.1187L419.5912 392.1187L419.5912 381.74738L425.1933 381.74738L432.13837 392.1187L440.47235 392.1187L432.55493 380.5434C 436.86972 379.14246 439.71396 375.02798 439.50006 370.49646zM432.2774 370.86676C 432.2774 373.59833 430.2864 375.45062 426.8139 375.45062L426.8139 375.45062L419.5912 375.45062L419.5912 366.1443L426.67487 366.1443C 430.14746 366.1443 432.2774 367.7182 432.2774 370.7741zM536.6095 359.4768L522.7193 392.1187L529.9883 392.1187L532.95154 384.8497L546.6564 384.8497L549.61957 392.1187L557.074 392.1187L543.1838 359.4768zM535.49817 378.5525L539.804 368.04248L544.1098 378.5525zM551.87836 324.84442L565.0743 311.09326L556.4622 311.09326L543.313 325.26105L543.313 311.09326L536.1825 311.09326L536.1825 343.50342L543.313 343.50342L543.313 333.5951L547.0632 329.70593L557.1105 343.50342L565.67584 343.50342zM548.2307 350.91107L541.47095 350.91107L541.47095 357.16193L548.2307 357.16193z" stroke="none" fill="#000000" fill-rule="nonzero" />
  </g>
</svg>
