<?xml version="1.0" standalone="no"?>
<!DOCTYPE svg PUBLIC "-//W3C//DTD SVG 20010904//EN"
 "http://www.w3.org/TR/2001/REC-SVG-20010904/DTD/svg10.dtd">
<svg version="1.0" xmlns="http://www.w3.org/2000/svg"
 width="700.000000pt" height="700.000000pt" viewBox="0 0 700.000000 700.000000"
 preserveAspectRatio="xMidYMid meet">
<metadata>
Created by potrace 1.14, written by Peter Selinger 2001-2017
</metadata>
<g transform="translate(0.000000,700.000000) scale(0.100000,-0.100000)"
fill="#000000" stroke="none">
<path d="M0 6079 l0 -924 113 -96 c61 -53 130 -112 151 -130 22 -19 76 -65
120 -103 45 -38 106 -91 136 -117 30 -26 93 -80 140 -120 47 -40 110 -94 140
-120 30 -26 296 -253 590 -504 294 -252 551 -472 570 -489 19 -17 94 -81 165
-141 72 -60 144 -122 160 -136 17 -15 71 -61 120 -104 50 -42 101 -87 115 -99
14 -12 86 -73 160 -136 74 -63 151 -129 170 -147 19 -17 49 -42 65 -55 27 -20
78 -64 109 -93 6 -6 43 -37 81 -70 92 -77 269 -228 275 -235 3 -3 26 -23 52
-44 26 -21 46 -41 44 -45 -2 -3 -785 -6 -1740 -6 l-1736 0 2 -759 3 -758 3485
0 3485 0 0 758 0 759 -1742 0 c-958 0 -1741 1 -1740 1 1 1 59 50 128 110 69
60 184 158 255 219 71 60 131 112 134 115 3 3 34 30 70 60 36 30 67 57 70 60
3 3 34 30 70 60 74 63 118 101 134 115 6 6 56 48 111 95 55 47 102 87 105 90
5 6 261 224 294 250 10 8 24 20 31 27 12 11 122 106 230 198 28 24 133 114
235 202 243 208 223 191 320 274 93 79 170 145 240 205 82 72 95 82 175 150
44 37 82 70 85 73 3 4 32 29 65 56 33 28 65 55 71 60 6 6 35 30 64 55 29 25
58 50 64 55 6 6 56 48 111 95 55 47 105 89 111 95 6 5 79 68 162 139 l152 130
0 918 c0 505 -2 918 -5 918 -5 0 -600 -507 -641 -545 -6 -5 -35 -30 -65 -55
-29 -25 -72 -61 -94 -81 -22 -20 -72 -62 -111 -95 -39 -32 -180 -153 -315
-269 -134 -115 -255 -219 -268 -230 -13 -11 -29 -25 -35 -30 -6 -6 -53 -46
-105 -90 -52 -44 -106 -91 -120 -104 -14 -13 -46 -40 -71 -60 -25 -20 -47 -39
-50 -42 -5 -6 -156 -135 -285 -244 -79 -67 -117 -100 -152 -132 -13 -11 -42
-36 -65 -55 -23 -18 -49 -40 -57 -48 -9 -9 -61 -54 -116 -100 -55 -47 -113
-97 -130 -111 -42 -37 -460 -394 -525 -449 -29 -25 -61 -52 -69 -60 -9 -9 -45
-40 -81 -70 -36 -29 -69 -59 -75 -65 -5 -6 -21 -19 -35 -28 -24 -16 -27 -15
-55 11 -17 16 -158 138 -315 272 -157 134 -291 249 -298 256 -7 7 -34 30 -60
51 -26 21 -52 43 -58 48 -6 6 -37 33 -69 60 -32 28 -82 70 -110 95 -28 25 -62
54 -76 65 -41 35 -311 265 -374 320 -33 29 -208 180 -390 335 -181 155 -355
303 -385 329 -30 26 -140 121 -245 210 -104 90 -201 173 -215 185 -25 22 -201
172 -299 255 -30 25 -59 51 -65 56 -12 12 -206 178 -282 242 -27 23 -60 51
-74 63 -14 12 -38 33 -55 47 -16 14 -42 37 -57 51 l-28 26 0 -925z"/>
</g>
</svg>
